HIERARCHY
ROOT hip
{
	OFFSET 0.000000 0.000000 0.000000 
	CHANNELS 6 Xposition Yposition Zposition Xrotation Zrotation Yrotation
	JOINT abdomen
	{
		OFFSET 0.000000 3.402643 0.000000 
		CHANNELS 3 Xrotation Zrotation Yrotation
		JOINT chest
		{
			OFFSET 0.000000 8.438565 -0.680529 
			CHANNELS 3 Xrotation Zrotation Yrotation
			JOINT neck
			{
				OFFSET 0.000000 10.207942 -0.272212 
				CHANNELS 3 Xrotation Zrotation Yrotation
				JOINT head
				{
					OFFSET 0.000000 3.130431 0.000000 
					CHANNELS 3 Xrotation Zrotation Yrotation
					End Site
					{
						OFFSET 0.000000 3.130435 0.000000 
					}
				}
			}
			JOINT lCollar
			{
				OFFSET 3.470700 6.669187 -0.816635 
				CHANNELS 3 Yrotation Zrotation Xrotation
				JOINT lShldr
				{
					OFFSET 3.198488 0.000000 0.000000 
					CHANNELS 3 Zrotation Yrotation Xrotation
					JOINT lForeArm
					{
						OFFSET 10.139888 0.000000 0.000000 
						CHANNELS 3 Yrotation Zrotation Xrotation
						JOINT lHand
						{
							OFFSET 8.370511 0.000000 0.000000 
							CHANNELS 3 Zrotation Yrotation Xrotation
							End Site
							{
								OFFSET 4.083176 0.000000 0.000000 
							}
						}
					}
				}
			}
			JOINT rCollar
			{
				OFFSET -3.470700 6.669187 -0.816635 
				CHANNELS 3 Yrotation Zrotation Xrotation
				JOINT rShldr
				{
					OFFSET -3.198488 0.000000 0.000000 
					CHANNELS 3 Zrotation Yrotation Xrotation
					JOINT rForeArm
					{
						OFFSET -10.139888 0.000000 0.000000 
						CHANNELS 3 Yrotation Zrotation Xrotation
						JOINT rHand
						{
							OFFSET -8.370511 0.000000 0.000000 
							CHANNELS 3 Zrotation Yrotation Xrotation
							End Site
							{
								OFFSET -4.083176 0.000000 0.000000 
							}
						}
					}
				}
			}
		}
	}
	JOINT lThigh
	{
		OFFSET 5.308129 -1.633274 1.361059 
		CHANNELS 3 Xrotation Zrotation Yrotation
		JOINT lShin
		{
			OFFSET -2.041588 -20.007561 0.000000 
			CHANNELS 3 Xrotation Zrotation Yrotation
			JOINT lFoot
			{
				OFFSET 0.000000 -19.190928 -1.224953 
				CHANNELS 3 Xrotation Yrotation Zrotation
				End Site
				{
					OFFSET 0.000000 -2.449906 4.627600 
				}
			}
		}
	}
	JOINT rThigh
	{
		OFFSET -5.308129 -1.633274 1.361059 
		CHANNELS 3 Xrotation Zrotation Yrotation
		JOINT rShin
		{
			OFFSET 2.041588 -20.007561 0.000000 
			CHANNELS 3 Xrotation Zrotation Yrotation
			JOINT rFoot
			{
				OFFSET 0.000000 -19.190928 -1.224953 
				CHANNELS 3 Xrotation Yrotation Zrotation
				End Site
				{
					OFFSET 0.000000 -2.449906 4.627600 
				}
			}
		}
	}
}
MOTION
Frames: 8
Frame Time: 0.016667
-0.005765 44.730206 -0.956460 4.826930 1.917010 -6.283220 -20.388399 1.195200 -1.985900 20.693800 4.374990 -0.721247 15.651000 6.393840 -6.571150 14.845800 7.480310 -2.788920 2.000000 -2.000000 0.000000 -90.254799 2.265700 159.106003 26.904600 -0.336767 0.061925 0.044808 -0.007491 -139.598007 -2.000000 2.000000 0.000000 86.826599 1.602520 158.645996 -28.574499 0.334912 0.065394 -0.056635 -0.016936 -127.342003 -9.716521 -3.258503 -0.070204 24.917860 2.702336 1.943865 -15.816441 11.440551 4.246351 -14.707284 -2.261670 9.218296 32.593616 -2.846494 -2.349704 -18.581453 -0.972037 -0.696138 
-0.001515 44.730846 -0.936812 4.875920 1.965520 -6.277440 -20.476299 1.199950 -2.001070 20.546801 4.433590 -0.733177 15.760200 6.054530 -6.250500 14.853300 7.393720 -2.639280 2.000000 -2.000000 0.000000 -90.410698 2.382000 158.705994 26.855801 -0.336819 0.061821 0.044709 -0.004950 -138.688995 -2.000000 2.000000 0.000000 86.816902 1.387570 158.695007 -28.779600 0.334677 0.065824 -0.056478 -0.015992 -127.683998 -9.679707 -3.310617 -0.101528 24.799887 2.703905 1.946051 -15.844332 11.444057 4.274012 -14.761043 -2.291905 9.314940 32.623878 -2.840335 -2.357141 -18.639061 -0.993471 -0.698118 
0.009370 44.724285 -0.893742 4.905290 1.984900 -6.333350 -20.476801 1.213660 -1.964490 20.556601 4.394530 -0.712891 15.976500 5.808250 -5.828090 14.950200 7.333570 -2.432640 2.000000 -2.000000 0.000000 -90.430298 2.382070 158.735001 26.767900 -0.336914 0.061634 0.044707 -0.004868 -138.660004 -2.000000 2.000000 0.000000 86.836304 1.338950 158.597000 -28.867500 0.334576 0.066008 -0.056400 -0.015506 -127.859001 -9.637211 -3.343918 -0.105445 24.789782 2.702835 1.936281 -15.877615 11.518185 4.296207 -14.674776 -2.323492 9.390359 32.516907 -2.829872 -2.355886 -18.650097 -0.969292 -0.695355 
0.020253 44.717724 -0.850667 4.924870 1.994570 -6.390430 -20.467400 1.218330 -1.924210 20.556601 4.345700 -0.692619 16.192200 5.553890 -5.399790 15.046800 7.263860 -2.218290 2.000000 -2.000000 0.000000 -90.449799 2.382110 158.753998 26.680000 -0.337008 0.061446 0.044704 -0.004786 -138.630997 -2.000000 2.000000 0.000000 86.865501 1.280580 158.498993 -28.955400 0.334475 0.066191 -0.056323 -0.015020 -128.035004 -9.612926 -3.386476 -0.126183 24.819347 2.701727 1.935617 -15.914865 11.583375 4.326168 -14.718180 -2.337071 9.457581 32.613815 -2.843774 -2.358287 -18.729515 -0.950276 -0.685233 
0.021505 44.716312 -0.817185 4.954240 2.013940 -6.407260 -20.409201 1.232680 -1.885890 20.635000 4.326170 -0.676964 16.182699 5.234420 -5.051710 15.045000 7.196760 -2.035950 2.000000 -2.000000 0.000000 -90.479301 2.333690 158.940002 26.738600 -0.336945 0.061571 0.044703 -0.004758 -138.621002 -2.000000 2.000000 0.000000 86.884903 1.368770 158.363007 -28.955400 0.334475 0.066191 -0.056265 -0.014641 -128.171997 -9.592377 -3.412442 -0.108172 24.770735 2.696997 1.935408 -15.895918 11.591919 4.328450 -14.759655 -2.340260 9.484548 32.653130 -2.852377 -2.379489 -18.760725 -0.914804 -0.676260 
0.022755 44.715031 -0.783701 4.993390 2.033280 -6.413950 -20.351101 1.247040 -1.847570 20.703501 4.306630 -0.652329 16.173300 4.915800 -4.693860 15.042900 7.120080 -1.855450 2.000000 -2.000000 0.000000 -90.508698 2.275510 159.126007 26.787399 -0.336893 0.061675 0.044703 -0.004731 -138.610992 -2.000000 2.000000 0.000000 86.904297 1.456990 158.216003 -28.955400 0.334475 0.066191 -0.056203 -0.014236 -128.317993 -9.584469 -3.433195 -0.098907 24.759562 2.702591 1.917270 -15.912503 11.636693 4.344809 -14.714415 -2.373597 9.469891 32.613098 -2.847998 -2.349755 -18.801826 -0.880293 -0.656626 
0.026941 44.711815 -0.765669 5.071870 2.130310 -6.363470 -20.429300 1.229000 -1.812240 20.576200 4.287110 -0.642341 16.293800 4.599450 -4.343760 15.060600 7.042890 -1.682330 2.000000 -2.000000 0.000000 -90.528397 2.451660 159.291000 27.021799 -0.336640 0.062174 0.044682 -0.003965 -138.337997 -2.000000 2.000000 0.000000 86.904404 1.290840 158.274994 -29.023800 0.334396 0.066334 -0.056062 -0.013289 -128.660004 -9.628840 -3.550291 -0.170073 24.673738 2.685321 1.934497 -15.897130 11.667784 4.370242 -14.804560 -2.483520 9.433610 32.663971 -2.833736 -2.364436 -18.833418 -0.839323 -0.633100 
0.031125 44.708595 -0.747637 5.150420 2.237030 -6.321630 -20.507700 1.214420 -1.767690 20.439100 4.257800 -0.623935 16.404499 4.284750 -3.986760 15.078500 6.975290 -1.517170 2.000000 -2.000000 0.000000 -90.538300 2.627840 159.466995 27.256201 -0.336385 0.062672 0.044665 -0.003227 -138.074005 -2.000000 2.000000 0.000000 86.904404 1.134480 158.322998 -29.092100 0.334316 0.066476 -0.055928 -0.012342 -129.001999 -9.683614 -3.663561 -0.229843 24.615194 2.681735 1.934719 -15.900493 11.748211 4.394345 -14.952266 -2.597846 9.395439 32.781261 -2.837276 -2.363759 -18.865582 -0.776514 -0.619125 
